<?xml version="1.0" encoding="UTF-8"?>
<svg width="737px" height="183px" viewBox="0 0 737 183" version="1.1" xmlns="http://www.w3.org/2000/svg" xmlns:xlink="http://www.w3.org/1999/xlink">
    <!-- Generator: Sketch 63.1 (92452) - https://sketch.com -->
    <title>dtm-machine-bottom</title>
    <desc>Created with Sketch.</desc>
    <defs>
        <filter x="-270.0%" y="-17.4%" width="640.0%" height="134.7%" filterUnits="objectBoundingBox" id="filter-1">
            <feGaussianBlur stdDeviation="18" in="SourceGraphic"></feGaussianBlur>
        </filter>
        <filter x="-270.0%" y="-17.4%" width="640.0%" height="134.7%" filterUnits="objectBoundingBox" id="filter-2">
            <feGaussianBlur stdDeviation="18" in="SourceGraphic"></feGaussianBlur>
        </filter>
        <filter x="-270.0%" y="-17.4%" width="640.0%" height="134.7%" filterUnits="objectBoundingBox" id="filter-3">
            <feGaussianBlur stdDeviation="18" in="SourceGraphic"></feGaussianBlur>
        </filter>
        <filter x="-270.0%" y="-17.4%" width="640.0%" height="134.7%" filterUnits="objectBoundingBox" id="filter-4">
            <feGaussianBlur stdDeviation="18" in="SourceGraphic"></feGaussianBlur>
        </filter>
    </defs>
    <g id="Page-1" stroke="none" stroke-width="1" fill="none" fill-rule="evenodd">
        <g id="dtm-machine-bottom" transform="translate(10.000000, 25.000000)">
            <polygon id="Triangle" fill="#F3D500" filter="url(#filter-1)" transform="translate(159.000000, 45.500000) rotate(-77.000000) translate(-159.000000, -45.500000) " points="159 -110 169 201 149 201"></polygon>
            <polygon id="Triangle" fill="#6236FF" filter="url(#filter-2)" transform="translate(159.000000, 65.500000) rotate(-77.000000) translate(-159.000000, -65.500000) " points="159 -90 169 221 149 221"></polygon>
            <polygon id="Triangle" fill="#FA6400" transform="translate(154.000000, 60.500000) rotate(-77.000000) translate(-154.000000, -60.500000) " points="154 -95 164 216 144 216"></polygon>
            <polygon id="Triangle" fill="#F3D500" filter="url(#filter-3)" transform="translate(558.000000, 52.500000) scale(-1, 1) rotate(-77.000000) translate(-558.000000, -52.500000) " points="558 -103 568 208 548 208"></polygon>
            <polygon id="Triangle" fill="#6236FF" filter="url(#filter-4)" transform="translate(558.000000, 72.500000) scale(-1, 1) rotate(-77.000000) translate(-558.000000, -72.500000) " points="558 -83 568 228 548 228"></polygon>
            <polygon id="Triangle" fill="#FA9900" transform="translate(558.000000, 60.500000) scale(-1, 1) rotate(-77.000000) translate(-558.000000, -60.500000) " points="558 -95 568 216 548 216"></polygon>
        </g>
    </g>
</svg>