<?xml version="1.0" encoding="UTF-8"?>
<svg width="80px" height="48px" viewBox="0 0 80 48" version="1.1" xmlns="http://www.w3.org/2000/svg" xmlns:xlink="http://www.w3.org/1999/xlink">
    <!-- Generator: Sketch 63.1 (92452) - https://sketch.com -->
    <title>Path</title>
    <desc>Created with Sketch.</desc>
    <g id="Page-2" stroke="none" stroke-width="1" fill="none" fill-rule="evenodd">
        <path d="M56.01,12.0873003 L60.64,17.5273003 C61.17,18.1383003 61.64,18.6409003 61.83,18.9267003 C63.2147,20.3028003 63.9911,22.1626003 63.99,24.1006003 C63.86,26.3870003 62.37,27.9441003 60.99,29.6096003 L57.75,33.4137003 L56.06,35.3847003 C55.9994,35.4526003 55.9603,35.5366003 55.9475,35.6263003 C55.9348,35.7159003 55.949,35.8072003 55.9884,35.8890003 C56.0277,35.9708003 56.0905,36.0394003 56.169,36.0864003 C56.2475,36.1333003 56.3382,36.1566003 56.43,36.1534003 L73.32,36.1534003 C75.9,36.1534003 79.15,38.3215003 78.96,41.6131003 C78.9547,43.1091003 78.3493,44.5425003 77.2759,45.6003003 C76.2025,46.6582003 74.7481,47.2548003 73.23,47.2600003 L46.78,47.2600003 C45.04,47.2600003 40.36,47.4473003 39.05,43.4560003 C38.7714,42.6219003 38.7333,41.7281003 38.94,40.8739003 C39.3208,39.6110003 39.9232,38.4235003 40.72,37.3655003 C42.05,35.3945003 43.49,33.4235003 44.91,31.5116003 C46.74,29.0084003 48.62,26.5841003 50.47,24.0316003 C50.5357,23.9485003 50.5714,23.8462003 50.5714,23.7409003 C50.5714,23.6356003 50.5357,23.5333003 50.47,23.4502003 L43.75,15.5661003 C43.7062,15.5090003 43.6495,15.4626003 43.5844,15.4307003 C43.5194,15.3988003 43.4477,15.3822003 43.375,15.3822003 C43.3023,15.3822003 43.2306,15.3988003 43.1656,15.4307003 C43.1005,15.4626003 43.0438,15.5090003 43,15.5661003 C41.2,17.9609003 33.32,28.5650003 31.64,30.7134003 C29.96,32.8618003 25.82,32.9800003 23.53,30.7134003 L13.02,20.3163003 C12.9529,20.2499003 12.8672,20.2046003 12.774,20.1863003 C12.6807,20.1679003 12.584,20.1773003 12.4962,20.2132003 C12.4083,20.2491003 12.3332,20.3099003 12.2805,20.3879003 C12.2278,20.4659003 12.1998,20.5576003 12.2,20.6513003 L12.2,40.6473003 C12.2247,42.0663003 11.7984,43.4573003 10.9806,44.6255003 C10.1629,45.7936003 8.9948,46.6804003 7.64,47.1615003 C6.7743,47.4584003 5.8492,47.5471003 4.9416,47.4201003 C4.0341,47.2931003 3.1706,46.9541003 2.423,46.4314003 C1.6754,45.9088003 1.0654,45.2175003 0.6439,44.4154003 C0.2225,43.6132003 0.0017,42.7234003 0,41.8200003 L0,5.86870027 C0.0603,4.57310027 0.5333,3.32920027 1.3519,2.31370027 C2.1705,1.29820027 3.293,0.562800268 4.56,0.211900268 C5.6468,-0.0734197318 6.7908,-0.0705597318 7.8761,0.220200268 C8.9614,0.510900268 9.9494,1.07930027 10.74,1.86760027 L26.9,17.8131003 C26.9484,17.8615003 27.0069,17.8989003 27.0716,17.9225003 C27.1362,17.9461003 27.2054,17.9555003 27.2741,17.9498003 C27.3428,17.9442003 27.4094,17.9237003 27.4692,17.8899003 C27.529,17.8560003 27.5804,17.8096003 27.62,17.7539003 L39.1,2.09420027 C39.6305,1.45850027 40.2956,0.944800268 41.0488,0.589000268 C41.8019,0.233200268 42.6249,0.0440002682 43.46,0.0345002682 L73.32,0.0345002682 C74.1372,0.0359002682 74.9447,0.209100268 75.6884,0.542700268 C76.4322,0.876400268 77.0951,1.36270027 77.6328,1.96910027 C78.1705,2.57550027 78.5706,3.28810027 78.8064,4.05920027 C79.0422,4.83030027 79.1082,5.64210027 79,6.44030027 C78.7896,7.82500027 78.0767,9.08760027 76.9936,9.99370027 C75.9104,10.8998003 74.5306,11.3881003 73.11,11.3679003 L56.39,11.3679003 C56.306,11.3699003 56.2241,11.3941003 56.1527,11.4379003 C56.0814,11.4817003 56.0233,11.5436003 55.9845,11.6170003 C55.9457,11.6905003 55.9276,11.7729003 55.9321,11.8556003 C55.9366,11.9383003 55.9635,12.0183003 56.01,12.0873003 Z" id="Path" fill="#FFFFFF" fill-rule="nonzero"></path>
    </g>
</svg>