<svg width="17px" height="16px" viewBox="0 0 17 16" version="1.1" xmlns="http://www.w3.org/2000/svg" xmlns:xlink="http://www.w3.org/1999/xlink">
    <g id="Page-1" stroke="none" stroke-width="1" fill="none" fill-rule="evenodd">
        <g id="solana-solana-scan-blue.5ffb9996" fill-rule="nonzero">
            <path d="M8.561,4.839 C10.3222,4.855 11.7122,6.27832 11.6873,8.0389 C11.6623,9.80012 10.2268,11.1895 8.4726,11.1505 C6.7383,11.1121 5.3783,9.71948 5.38278887,7.98706 C5.3873,6.22712 6.8042,4.823 8.561,4.839 Z" id="Path" fill="#C74AE3"></path>
            <path d="M12.6574,14.7319 C9.9061,16.9475 4.9898,16.1546 2.4433,13.1729 C-0.3579,9.89301 -0.0308,4.97221 3.1819,2.05838 C6.3555,-0.819605 11.2654,-0.660891 14.2586,2.41677 C17.1641,5.40419 17.2928,10.3608 14.5735,13.1582 C13.9386,12.4932 13.3031,11.827 12.6369,11.1294 C13.6679,9.68822 13.9873,8.03899 13.371,6.26817 C12.4507,3.62441 9.5356,2.22926 6.8771,3.13035 C4.25,4.02056 2.812,6.84863 3.6324,9.51094 C4.4618,12.2027 7.2752,13.7316 9.9753,12.9022 C10.5128,12.7371 10.8111,12.8337 11.1586,13.2337 C11.6181,13.7636 12.1499,14.2308 12.6574,14.7319 Z" id="Shape" fill="#00E8B5"></path>
        </g>
    </g>
</svg>